Coordinates
version=1
nRows=12
nColumns=33
inDegrees=yes

Units are S.I. units (second, meters, Newtons, ...)
Angles are in degrees.

endheader
time	ground_thorax_rot_x	ground_thorax_rot_y	ground_thorax_rot_z	ground_thorax_tx	ground_thorax_ty	ground_thorax_tz	clav_prot_r	clav_elev_r	scapula_abduction_r	scapula_elevation_r	scapula_upward_rot_r	scapula_winging_r	shoulder_elv_r	plane_of_elev_r	axial_rot_r	elbow_flexion_r	pro_sup_r	wrist_flex_r	wrist_dev_r	clav_prot_l	clav_elev_l	scapula_abduction_l	scapula_elevation_l	scapula_upward_rot_l	scapula_winging_l	shoulder_elv_l	plane_of_elev_l	axial_rot_l	elbow_flexion_l	pro_sup_l	wrist_flex_l	wrist_dev_l
      4.70000000	     -2.06551049	      3.00264436	      9.31270687	     -0.10249611	      1.03248328	      0.01017428	     12.30187323	    -15.81526079	     24.51430353	    -10.60715998	      6.37050368	     -3.76975421	    -17.23781325	    -69.19284626	    116.37487904	    -73.01867408	   -166.03520801	     11.01200722	     -2.98602939	     16.84409038	     -7.85101415	    -24.12931900	    -12.26703582	    -31.47887173	      4.83930653	     58.54927292	    -14.09881070	     10.29388511	     53.05876853	     16.38209381	     18.65769418	    -13.26361226
      4.71000000	     -1.91752344	      2.84930571	      9.24148974	     -0.10318412	      1.03204498	      0.01025833	     12.05205338	    -15.21426479	     23.84578937	     -9.87443499	      5.84902057	     -3.85975995	    -17.85203091	    -69.75221497	    116.49810758	    -74.76788049	   -166.09735023	     11.50328331	     -3.15678144	     16.59998844	     -7.30771239	    -23.76133625	    -12.94086075	    -31.83273044	      4.65197104	     58.32532778	    -14.58423174	     10.58611612	     54.74383917	     16.15232205	     18.59074327	    -13.55355499
      4.72000000	     -1.84271371	      2.72837449	      9.51342005	     -0.10361662	      1.03277720	      0.01003404	     11.51088820	    -15.72698294	     22.33096745	     -9.92954593	      4.69893507	     -2.96177879	    -19.09036036	    -71.26636320	    115.71981938	    -76.18692785	   -166.79693974	     13.85677636	     -5.65597613	     16.06689024	     -7.21991699	    -22.85623945	    -13.10558175	    -31.95298223	      4.18300446	     58.49196446	    -16.24587180	      9.69714913	     56.69717499	     15.66840544	     18.40413966	    -13.70716202
      4.73000000	     -1.67613695	      2.55873040	      9.44117677	     -0.10427098	      1.03235107	      0.01005060	     11.25377231	    -15.11547447	     21.66186896	     -9.18452880	      4.19332827	     -3.04846605	    -19.66393046	    -71.88037486	    115.83465078	    -77.71464036	   -166.81076074	     14.33293985	     -5.82819803	     15.82482781	     -6.66303957	    -22.48916042	    -13.80776135	    -32.33184527	      3.98281841	     58.22609453	    -16.76858696	      9.98408926	     58.40087235	     15.42107334	     18.32302266	    -13.99947655
      4.74000000	     -1.57379226	      2.42213790	      9.70152914	     -0.10472013	      1.03311620	      0.00990874	     10.66669187	    -15.52152701	     20.13540297	     -9.16632320	      3.12739525	     -2.21175558	    -20.92040493	    -73.46333847	    115.12425575	    -78.88790966	   -166.94470619	     17.11658908	     -8.44962100	     15.33914172	     -6.55850549	    -21.65751331	    -13.97082413	    -32.41911302	      3.55966785	     58.27884456	    -18.45213012	      9.17119717	     60.12863274	     14.76630579	     17.83883966	    -14.21728249
      4.75000000	     -1.41551150	      2.22897997	      9.61914388	     -0.10534022	      1.03273951	      0.00989560	     10.40315728	    -14.89422476	     19.46762832	     -8.40622563	      2.64001360	     -2.29386209	    -21.45244118	    -74.03526467	    115.21936773	    -80.18111124	   -166.90541459	     17.56157456	     -8.61479405	     15.09935302	     -5.97488960	    -21.29383784	    -14.72262630	    -32.84138399	      3.34782937	     57.98955433	    -19.05925382	      9.42585953	     61.87331747	     14.51147376	     17.72866363	    -14.52111071
      4.76000000	     -1.36783156	      2.07816354	      9.87711168	     -0.10575692	      1.03353310	      0.00985515	      9.76795332	    -15.18568301	     17.93984621	     -8.32529814	      1.70125937	     -1.52788794	    -22.87149947	    -75.54354023	    114.46094322	    -81.00936500	   -166.35697490	     20.76584561	    -11.31523954	     14.63787328	     -5.79412414	    -20.49709980	    -14.94178517	    -32.89811229	      2.95302063	     58.00071038	    -20.85507138	      8.52849043	     63.50082329	     13.68560134	     16.51346132	    -14.81056658
      4.77000000	     -1.26404407	      1.83018052	     10.04557893	     -0.10657101	      1.03321026	      0.00980401	      9.51185229	    -14.58557804	     17.26506821	     -7.56769093	      1.17651028	     -1.58240731	    -23.59796135	    -76.33620541	    114.61462964	    -82.00072721	   -166.20300328	     21.32746766	    -11.55855058	     14.40923886	     -5.15587737	    -20.15457126	    -15.78166734	    -33.38962226	      2.72649802	     57.68246315	    -21.68085592	      8.58224992	     65.10951768	     13.41096700	     16.30043991	    -15.10594385
      4.78000000	     -1.13638800	      1.74357743	     10.07751730	     -0.10682627	      1.03396355	      0.00980909	      8.91337277	    -14.63560295	     15.89495377	     -7.32312091	      0.40964978	     -1.01351133	    -24.95208109	    -77.47785663	    113.60638502	    -82.55162411	   -164.99388012	     24.50520073	    -13.96569457	     13.97049446	     -4.98405222	    -19.39620296	    -16.01320778	    -33.48716844	      2.34545276	     57.69571364	    -23.09142841	      7.91224289	     66.44035530	     12.77785486	     14.84518240	    -15.65767707
      4.79000000	     -1.10363960	      1.58764589	     10.12646903	     -0.10721930	      1.03408425	      0.00979422	      8.43815543	    -14.25846669	     14.93263668	     -6.84304284	      0.05623756	     -0.82855585	    -26.62271095	    -78.32602130	    112.75710278	    -83.02391403	   -163.94160247	     26.53090018	    -15.34527848	     13.59764809	     -4.36004620	    -18.75071139	    -16.69974914	    -33.65594850	      2.00760070	     57.52031391	    -23.99104687	      7.54892842	     67.58716478	     12.42619396	     13.88916521	    -16.26537513
      4.80000000	     -1.00106904	      1.32167042	     10.26947260	     -0.10813696	      1.03390952	      0.00976156	      8.27403380	    -13.69375477	     14.39353616	     -6.09477537	     -0.49855385	     -0.89574232	    -27.29419099	    -79.05198355	    112.81920477	    -83.64941144	   -163.66514222	     27.01123203	    -15.54436445	     13.42796966	     -3.87711268	    -18.50301183	    -17.39451722	    -34.13699388	      1.80370172	     57.29329907	    -24.83445357	      7.59263351	     68.79757328	     12.34494830	     13.79018649	    -16.60355716
      4.81000000	     -0.80635826	      1.19593080	     10.34987023	     -0.10840498	      1.03470495	      0.00989359	      7.80053277	    -13.53194569	     13.28619941	     -5.68086580	     -1.16445346	     -0.53642101	    -28.72712997	    -79.99029046	    111.61060943	    -83.77989818	   -161.65480574	     30.01445148	    -17.50659797	     13.00592022	     -3.75314485	    -17.78760962	    -17.64678309	    -34.36731515	      1.42460921	     57.34034727	    -25.94665691	      7.29529658	     69.53979630	     12.94574960	     13.19114192	    -17.99219992
